<?xml version="1.0" encoding="utf-8"?>
<svg viewBox="114.474 71.052 140.13 100.657" xmlns="http://www.w3.org/2000/svg">
  <g style="" transform="matrix(0.999998, 0, 0, 1, 0.000354, 35.525998)">
    <path d="M 186.577 94.736 C 165.92 94.736 154.078 87.63 154.078 76.973 L 219.076 76.973 C 219.209 87.63 207.234 94.736 186.577 94.736 Z M 186.578 35.526 C 207.235 35.526 219.077 45 219.077 59.21 L 154.079 59.21 C 153.946 45 165.921 35.526 186.578 35.526 Z" style="fill: none; stroke-width: 3px; stroke-linejoin: round; stroke-linecap: round; stroke: rgb(96, 224, 132);">
      <title>bread</title>
    </path>
    <path d="M 219.077 71.052 C 219.077 76.973 213.156 76.973 213.156 76.973 L 159.867 76.973 C 159.867 76.973 153.946 76.973 153.946 71.052 C 153.946 69.694 154.257 68.647 154.738 67.841 C 155.815 69.665 157.841 71.052 159.867 71.052 C 165.788 71.052 169.256 62.678 177.63 71.052 C 183.551 76.973 189.472 76.973 195.393 71.052 C 203.767 62.678 207.235 71.052 213.156 71.052 C 215.182 71.052 217.208 69.665 218.285 67.841 C 218.766 68.647 219.077 69.694 219.077 71.052 Z" style="stroke-width: 3px; stroke-linejoin: round; stroke-linecap: round; fill: none; stroke: rgb(96, 224, 132);">
      <title>cheesenmeat</title>
    </path>
    <path d="M 171.321 41.788 C 174.215 42.424 166.963 46.611 167.712 43.817 C 168.496 40.892 171.321 41.788 171.321 41.788 Z M 203.834 41.788 C 200.939 42.424 208.191 46.611 207.442 43.817 C 206.658 40.892 203.834 41.788 203.834 41.788 Z M 181.031 41.788 C 183.926 42.425 176.674 46.611 177.423 43.817 C 178.207 40.892 181.031 41.788 181.031 41.788 Z M 195.604 43.893 C 196.5 46.719 189.248 42.532 192.042 41.783 C 194.967 40.999 195.604 43.893 195.604 43.893 Z M 170.88 49.598 C 173.841 49.464 167.92 55.385 167.92 52.492 C 167.92 49.464 170.88 49.598 170.88 49.598 Z M 162.827 49.598 C 165.788 49.464 159.867 55.385 159.867 52.492 C 159.867 49.464 162.827 49.598 162.827 49.598 Z M 210.196 49.598 C 207.235 49.464 213.156 55.385 213.156 52.492 C 213.156 49.464 210.196 49.598 210.196 49.598 Z M 202.143 49.598 C 199.182 49.464 205.103 55.385 205.103 52.492 C 205.103 49.464 202.143 49.598 202.143 49.598 Z" style="fill: rgb(96, 224, 132);">
      <title>seeds</title>
    </path>
    <path d="M 148.025 82.894 L 186.376 89.555 L 224.998 82.894 L 219.077 109.538 L 224.998 136.183 L 148.025 136.183 L 153.946 109.538 L 148.025 82.894 Z" style="stroke-width: 3px; stroke-linejoin: round; stroke-linecap: round; fill: rgb(255, 255, 255); stroke: rgb(96, 224, 132);">
      <title>bag</title>
    </path>
    <path d="M 186.511 100.657 C 195.393 100.657 195.393 107.762 195.393 107.762 C 190.952 111.314 182.071 111.314 177.63 107.762 C 177.63 107.762 177.63 100.657 186.511 100.657 Z M 186.511 118.42 C 177.63 118.42 177.63 111.314 177.63 111.314 C 186.511 111.314 195.393 111.314 195.393 111.314 C 195.393 111.314 195.393 118.42 186.511 118.42 Z" style="fill: rgb(96, 224, 132);">
      <title>logo</title>
    </path>
    <path d="M 254.604 98.842 L 248.234 101.678 L 245.722 108.869 L 243.21 101.678 L 236.84 98.842 L 243.21 96.006 L 245.722 88.815 L 248.234 96.006 Z M 142.104 53.289 L 133.075 56.024 L 135.196 65.131 L 128.289 58.759 L 121.381 65.131 L 123.503 56.024 L 114.474 53.289 L 123.503 50.554 L 121.381 41.447 L 128.289 47.819 L 135.196 41.447 L 133.075 50.554 Z" style="stroke-miterlimit: 1; fill: rgb(96, 224, 132);">
      <title>stars</title>
    </path>
  </g>
</svg>