<?xml version="1.0" encoding="utf-8"?>
<svg viewBox="65.131 148.025 272.366 112.499" xmlns="http://www.w3.org/2000/svg">
  <path style="stroke-linejoin: round; fill: rgb(96, 224, 132); stroke-linecap: round;" d="M 138.896 148.025 C 184.292 148.025 178.617 165.788 201.315 165.788 C 224.011 165.788 212.663 148.025 263.732 148.025 C 286.428 148.025 337.497 159.867 337.497 189.472 C 337.497 189.472 307.892 195.393 280.755 195.393 L 121.873 195.393 C 94.736 195.393 65.131 189.395 65.131 189.472 C 65.131 159.867 116.2 148.025 138.896 148.025 Z M 331.822 195.393 C 331.822 195.393 292.103 260.524 218.336 260.524 C 206.988 260.524 201.315 260.524 189.965 260.524 C 110.525 260.524 70.806 195.393 70.806 195.393 C 70.806 195.393 100.657 207.235 124.341 207.235 C 181.085 207.235 227.218 207.235 278.287 207.235 C 301.971 207.235 331.822 195.393 331.822 195.393 Z"/>
</svg>